<svg width="59" height="58" viewBox="0 0 59 58" xmlns="http://www.w3.org/2000/svg"><g fill="none" fill-rule="evenodd"><path d="M56.976 8.69c0-3.854-3.122-6.976-6.975-6.976H9.166c-3.852 0-6.975 3.122-6.975 6.975v40.835c0 3.853 3.123 6.975 6.975 6.975H50c3.854 0 6.976-3.122 6.976-6.975V8.69z" stroke="#FFF" stroke-width="3"/><path d="M41.805 17.444c2.83 2.955 4.492 6.728 4.777 10.76L52 28.16c-.302-5.42-2.493-10.5-6.286-14.46-3.76-3.928-8.688-6.33-14.035-6.896l-.283 5.412c3.963.486 7.608 2.305 10.408 5.228M29.237 6.67c-5.9 0-11.473 2.238-15.747 6.332l3.744 3.91c3.207-3.075 7.363-4.766 11.798-4.81l.283-5.43-.078-.002M41.268 42.015l3.74 3.91c1.996-1.91 3.595-4.12 4.764-6.533l-5.23-1.677c-.854 1.574-1.945 3.027-3.274 4.3M52.01 30.527l-5.436.045c-.11 1.722-.466 3.39-1.055 4.97l5.173 1.66c.763-2.122 1.21-4.365 1.318-6.675" fill="#FFF"/><path d="M37.118 24.707c.664 1.088 1.09 2.297 1.26 3.566l5.445-.046c-.234-2.687-1.202-5.224-2.8-7.392l-3.905 3.872M35.604 36.25l3.744 3.908c2.657-2.545 4.22-5.92 4.482-9.563l-5.423.045c-.253 2.136-1.23 4.1-2.803 5.61M19.002 18.91l3.744 3.908c1.608-1.538 3.65-2.426 5.862-2.557l.282-5.416c-3.702.062-7.198 1.49-9.888 4.066M39.467 19.044c-2.26-2.218-5.112-3.625-8.213-4.062l-.283 5.436c1.75.34 3.354 1.177 4.655 2.435l3.842-3.81M29.173 29.25l-.135.135.137.007-.002-.14" fill="#FFF"/></g></svg>