<svg width="191" height="100" viewBox="0 0 191 100" xmlns="http://www.w3.org/2000/svg"><g transform="translate(0 .56)" fill="#7265BC" fill-rule="evenodd"><path d="M96.992 54.037c-2.702-.296-5.144 1.646-5.43 4.362-.293 2.697 1.652 5.132 4.35 5.413.193.025.368.03.546.03 2.493 0 4.61-1.867 4.882-4.377.29-2.718-1.65-5.14-4.348-5.43zM93.214 32.195c-.355-2.69-2.828-4.585-5.527-4.23-2.68.357-4.58 2.835-4.207 5.526.32 2.482 2.424 4.275 4.866 4.275.21 0 .417-.008.657-.04 2.685-.362 4.58-2.83 4.21-5.53zM91.464 18.843c.016 2.717 2.217 4.91 4.917 4.91h.032c2.715-.007 4.897-2.226 4.883-4.943 0-2.714-2.218-4.908-4.932-4.898-2.717.004-4.918 2.215-4.9 4.93zM5.553 89.53c-2.73 0-4.932 2.204-4.932 4.924 0 2.716 2.203 4.918 4.933 4.918 2.713 0 4.917-2.202 4.917-4.918 0-2.72-2.202-4.924-4.917-4.924zM7.593 74.656c-2.666-.454-5.205 1.36-5.655 4.028-.448 2.683 1.366 5.222 4.032 5.672.276.05.547.082.82.082 2.363 0 4.45-1.713 4.85-4.115.45-2.683-1.364-5.223-4.047-5.667z"/><ellipse cx="59.399" cy="94.452" rx="4.92" ry="4.922"/><path d="M64.51 75.384c-2.474-1.122-5.383 0-6.506 2.473-1.107 2.48.016 5.388 2.488 6.5.658.298 1.335.44 2.01.44 1.88 0 3.68-1.09 4.497-2.922 1.106-2.466-.018-5.384-2.49-6.49zM68.01 64.164c-2.025 1.818-2.202 4.928-.386 6.953.98 1.077 2.313 1.63 3.665 1.63 1.172 0 2.342-.417 3.273-1.247 2.022-1.818 2.203-4.934.388-6.957-1.82-2.018-4.916-2.185-6.94-.38zM82.194 55.723c-2.587.827-4.016 3.6-3.18 6.19.657 2.085 2.602 3.42 4.675 3.42.496 0 1.01-.072 1.508-.233 2.586-.84 4.017-3.6 3.18-6.19-.833-2.587-3.6-4.015-6.184-3.187zM45.935 89.53c-2.728 0-4.912 2.204-4.912 4.924 0 2.716 2.184 4.918 4.912 4.918 2.717 0 4.92-2.202 4.92-4.918 0-2.72-2.203-4.924-4.92-4.924zM49.665 74.972c-2.585-.818-5.35.625-6.168 3.22-.802 2.6.627 5.353 3.212 6.166.498.15.996.23 1.48.23 2.103 0 4.046-1.345 4.704-3.443.803-2.59-.627-5.364-3.23-6.173zM51.994 70.28c.853.605 1.848.884 2.812.884 1.56 0 3.068-.724 4.034-2.087 1.557-2.224 1.01-5.295-1.206-6.855-2.22-1.565-5.3-1.018-6.862 1.207-1.54 2.22-1.012 5.292 1.222 6.85zM65.15 60.358c1.046 0 2.105-.328 3.003-1.03 2.14-1.657 2.556-4.745.886-6.893-1.657-2.155-4.74-2.555-6.893-.892-2.153 1.647-2.555 4.74-.9 6.893.964 1.255 2.426 1.922 3.904 1.922zM79.287 52.62c.547 0 1.125-.096 1.687-.294 2.553-.942 3.854-3.76 2.923-6.307-.933-2.563-3.76-3.873-6.3-2.932-2.57.923-3.872 3.75-2.94 6.305.726 1.99 2.605 3.226 4.63 3.226zM32.46 89.53c-2.713 0-4.9 2.204-4.9 4.924 0 2.716 2.187 4.918 4.9 4.918 2.733 0 4.934-2.202 4.934-4.918 0-2.72-2.203-4.924-4.934-4.924zM35.416 74.794c-2.65-.64-5.3.985-5.942 3.626-.642 2.634.98 5.3 3.613 5.938.384.095.772.146 1.17.146 2.202 0 4.227-1.514 4.772-3.76.643-2.646-.978-5.302-3.614-5.95zM43.88 67.82c1.254-2.408.323-5.382-2.087-6.63-2.407-1.26-5.38-.326-6.65 2.086-1.236 2.407-.303 5.382 2.106 6.64.72.38 1.494.557 2.264.557 1.767 0 3.483-.966 4.367-2.652zM51.674 56.43c1.782-2.06 1.588-5.16-.467-6.952-2.04-1.782-5.157-1.58-6.94.46-1.784 2.04-1.574 5.16.466 6.95.93.82 2.09 1.214 3.23 1.214 1.382-.002 2.732-.565 3.71-1.672zM63.126 40.333c-1.557-2.22-4.625-2.76-6.842-1.195-2.234 1.57-2.764 4.63-1.206 6.856.965 1.366 2.49 2.088 4.032 2.088.98 0 1.96-.28 2.827-.89 2.217-1.57 2.764-4.632 1.19-6.86zM74.082 40.65c2.538-.982 3.776-3.84 2.796-6.38-.995-2.53-3.855-3.77-6.378-2.79-2.54.996-3.792 3.848-2.795 6.378.772 1.944 2.636 3.135 4.577 3.135.61.002 1.222-.103 1.8-.344zM109.247 33.16c.287-2.71-1.67-5.132-4.387-5.41-2.7-.287-5.108 1.676-5.4 4.383-.288 2.69 1.672 5.116 4.37 5.408.194.017.355.023.53.023 2.476-.002 4.615-1.88 4.887-4.404zM18.485 89.53c-2.715 0-4.914 2.204-4.914 4.924 0 2.716 2.2 4.918 4.915 4.918 2.73 0 4.932-2.202 4.932-4.918 0-2.72-2.2-4.924-4.932-4.924zM20.894 74.7c-2.667-.517-5.252 1.21-5.783 3.88v-.01c-.515 2.676 1.207 5.266 3.872 5.786.322.064.657.095.963.095 2.297 0 4.37-1.62 4.82-3.966.53-2.668-1.203-5.256-3.87-5.785zM26.148 60.637c-2.506-1.04-5.382.144-6.426 2.66h.018c-1.044 2.516.145 5.384 2.65 6.426.626.258 1.27.378 1.878.378 1.946 0 3.774-1.14 4.564-3.04 1.024-2.51-.163-5.392-2.684-6.423zM34.066 47.862c-2.25-1.515-5.318-.906-6.81 1.358-1.527 2.26-.916 5.32 1.35 6.822.835.556 1.8.838 2.73.838 1.59 0 3.147-.78 4.096-2.202 1.495-2.25.9-5.314-1.366-6.816zM37.36 43.837c.965.958 2.218 1.43 3.47 1.43 1.27 0 2.524-.472 3.488-1.452 1.926-1.912 1.91-5.038-.016-6.95-1.912-1.913-5.044-1.913-6.94.015-1.93 1.928-1.93 5.038-.003 6.957zM48.315 33.555c.948 1.404 2.506 2.17 4.08 2.17.947.008 1.91-.265 2.747-.83 2.25-1.52 2.858-4.588 1.334-6.836-1.51-2.26-4.577-2.853-6.83-1.334-2.246 1.51-2.84 4.578-1.33 6.83zM61.055 25.595c.787 1.878 2.6 3.024 4.53 3.024.642 0 1.27-.117 1.91-.395 2.49-1.04 3.678-3.918 2.632-6.43-1.04-2.51-3.933-3.695-6.44-2.65-2.506 1.056-3.678 3.94-2.632 6.45zM75.094 20.28c.483 2.32 2.52 3.945 4.82 3.945.323 0 .643-.03.98-.105 2.65-.53 4.386-3.125 3.856-5.793-.547-2.66-3.134-4.386-5.798-3.858-2.67.55-4.39 3.136-3.858 5.81zM8.895 69.62c.53.196 1.078.277 1.623.277 2.023 0 3.92-1.27 4.626-3.302.9-2.564-.45-5.376-3.022-6.262-2.57-.898-5.364.46-6.264 3.022-.9 2.57.465 5.376 3.037 6.265zM14.244 55.586c.74.41 1.56.605 2.36.605 1.738 0 3.42-.92 4.32-2.544 1.318-2.383.435-5.372-1.942-6.69-2.378-1.31-5.365-.434-6.684 1.937-1.3 2.386-.448 5.375 1.946 6.693zM21.875 42.636c.898.712 1.976 1.065 3.053 1.065 1.445 0 2.874-.64 3.853-1.86 1.69-2.122 1.336-5.232-.804-6.91-2.12-1.69-5.218-1.337-6.908.794-1.683 2.13-1.33 5.22.807 6.912zM35.19 32.775c1.172 0 2.36-.417 3.294-1.26 2.023-1.825 2.184-4.935.37-6.96-1.832-2.016-4.93-2.177-6.958-.36-2.007 1.825-2.184 4.934-.353 6.958.966 1.065 2.316 1.622 3.648 1.622zM47.142 23.694c.898 0 1.815-.247 2.618-.77 2.313-1.456 2.973-4.5 1.528-6.79-1.46-2.292-4.497-2.973-6.794-1.518-2.296 1.47-2.973 4.505-1.51 6.796.93 1.482 2.536 2.282 4.158 2.282zM60.413 16.737c.642 0 1.284-.13 1.91-.385 2.506-1.045 3.677-3.938 2.62-6.446C63.896 7.41 61.006 6.23 58.5 7.29c-2.505 1.044-3.678 3.933-2.62 6.443.788 1.878 2.605 3.004 4.533 3.004zM74.66 12.112c.368 0 .756-.045 1.124-.13 2.65-.62 4.288-3.264 3.678-5.908-.61-2.658-3.262-4.297-5.91-3.678-2.65.61-4.29 3.27-3.663 5.913.513 2.273 2.537 3.802 4.77 3.802zM89.504 9.933h.306c2.713-.177 4.77-2.514 4.61-5.223-.176-2.716-2.506-4.77-5.22-4.603-2.714.16-4.772 2.498-4.593 5.213.157 2.6 2.327 4.613 4.897 4.613zM110.385 56.234c-2.587-.82-5.364.605-6.185 3.19-.832 2.597.598 5.353 3.183 6.195.497.15 1.01.226 1.513.226 2.07 0 4-1.33 4.672-3.418.834-2.584-.596-5.366-3.183-6.194zM96.78 40.374c-2.713-.12-5.01 1.985-5.14 4.7-.112 2.726 1.99 5.014 4.708 5.136h.227c2.6 0 4.786-2.057 4.895-4.69.128-2.727-1.99-5.016-4.69-5.146zM185.47 89.53c-2.712 0-4.916 2.204-4.916 4.924 0 2.716 2.204 4.918 4.917 4.918 2.73 0 4.933-2.202 4.933-4.918 0-2.72-2.202-4.924-4.932-4.924zM184.23 84.438c.277 0 .55-.033.822-.082 2.667-.448 4.484-2.99 4.034-5.672-.452-2.668-2.99-4.484-5.657-4.028-2.686.444-4.497 2.982-4.045 5.667.398 2.404 2.488 4.115 4.845 4.115zM102.26 9.933h.304c2.57 0 4.74-2.01 4.883-4.612.177-2.713-1.88-5.05-4.592-5.21-2.718-.168-5.045 1.886-5.206 4.602-.18 2.705 1.877 5.042 4.61 5.22z"/><ellipse cx="131.625" cy="94.452" rx="4.92" ry="4.922"/><path d="M130.532 84.356c2.474-1.11 3.595-4.018 2.488-6.5-1.123-2.472-4.03-3.596-6.505-2.472-2.473 1.105-3.597 4.023-2.49 6.49.822 1.83 2.618 2.923 4.5 2.923.674 0 1.345-.14 2.007-.44zM123.013 64.164c-2.025-1.808-5.126-1.64-6.94.38-1.815 2.022-1.638 5.138.384 6.956.93.83 2.105 1.247 3.278 1.247 1.348 0 2.682-.553 3.662-1.63 1.817-2.025 1.64-5.135-.384-6.953zM145.085 89.53c-2.715 0-4.917 2.204-4.917 4.924 0 2.716 2.202 4.918 4.917 4.918 2.73 0 4.918-2.202 4.918-4.918 0-2.72-2.187-4.924-4.918-4.924zM144.313 84.356c2.587-.813 4.018-3.566 3.217-6.165-.822-2.595-3.586-4.038-6.175-3.22-2.6.81-4.028 3.586-3.227 6.174.66 2.097 2.605 3.443 4.71 3.443.482.002.977-.078 1.475-.23zM136.218 71.164c.964 0 1.96-.28 2.81-.883 2.234-1.558 2.762-4.63 1.222-6.85-1.56-2.226-4.643-2.773-6.86-1.208-2.216 1.562-2.76 4.63-1.204 6.855.964 1.363 2.477 2.087 4.032 2.087zM122.87 59.328c.903.702 1.96 1.03 3.003 1.03 1.476 0 2.938-.67 3.904-1.922 1.656-2.152 1.253-5.248-.898-6.893-2.155-1.663-5.24-1.26-6.895.892-1.672 2.148-1.255 5.238.886 6.893zM113.936 43.084c-2.54-.94-5.368.37-6.3 2.93-.928 2.547.372 5.366 2.945 6.31.544.196 1.126.29 1.684.29 2.008 0 3.89-1.236 4.61-3.227.933-2.55-.368-5.378-2.938-6.303zM158.562 89.53c-2.73 0-4.932 2.204-4.932 4.924 0 2.716 2.203 4.918 4.932 4.918 2.7 0 4.9-2.202 4.9-4.918 0-2.72-2.2-4.924-4.9-4.924zM157.937 84.356c2.634-.636 4.253-3.302 3.613-5.938-.642-2.64-3.295-4.266-5.944-3.626-2.634.648-4.255 3.304-3.613 5.948.547 2.247 2.572 3.76 4.773 3.76.4.004.783-.05 1.17-.144zM155.878 63.276c-1.267-2.412-4.242-3.35-6.65-2.086-2.41 1.248-3.342 4.222-2.087 6.63.883 1.687 2.605 2.653 4.372 2.653.768 0 1.536-.178 2.26-.556 2.412-1.258 3.347-4.234 2.106-6.64zM146.29 56.887c2.04-1.792 2.25-4.91.465-6.95-1.78-2.042-4.9-2.243-6.94-.46-2.038 1.792-2.245 4.892-.463 6.95.977 1.108 2.325 1.67 3.71 1.67 1.14.003 2.298-.39 3.23-1.21zM135.944 45.992c1.56-2.225 1.028-5.286-1.208-6.856-2.216-1.565-5.285-1.026-6.84 1.195-1.575 2.228-1.026 5.292 1.19 6.857.868.61 1.845.89 2.825.89 1.546.003 3.07-.72 4.034-2.085zM123.32 37.86c.994-2.53-.257-5.382-2.798-6.377-2.52-.98-5.376.258-6.378 2.788-.98 2.542.258 5.4 2.796 6.38.58.242 1.19.347 1.802.347 1.94-.002 3.805-1.193 4.577-3.137zM172.54 89.53c-2.732 0-4.933 2.204-4.933 4.924 0 2.716 2.2 4.918 4.932 4.918 2.712 0 4.91-2.202 4.91-4.918 0-2.72-2.196-4.924-4.91-4.924zM171.075 84.45c.304 0 .645-.03.964-.094 2.663-.522 4.385-3.112 3.854-5.785v.01c-.514-2.67-3.1-4.397-5.77-3.88-2.664.528-4.402 3.116-3.867 5.784.452 2.347 2.52 3.967 4.818 3.967zM168.637 69.723c2.504-1.042 3.69-3.91 2.647-6.426h.018c-1.042-2.516-3.922-3.7-6.424-2.66-2.525 1.03-3.716 3.915-2.688 6.424.79 1.902 2.622 3.043 4.566 3.043.61 0 1.25-.122 1.88-.38zM156.958 47.862c-2.265 1.502-2.863 4.565-1.367 6.816.947 1.42 2.51 2.202 4.098 2.202.93 0 1.893-.282 2.73-.838 2.26-1.5 2.87-4.56 1.347-6.822-1.493-2.264-4.56-2.873-6.807-1.358zM146.708 43.815c.964.98 2.217 1.452 3.487 1.452 1.253 0 2.504-.472 3.468-1.43 1.928-1.92 1.928-5.03 0-6.957-1.897-1.928-5.03-1.928-6.94-.016-1.93 1.913-1.945 5.04-.015 6.95zM134.546 28.06c-1.526 2.247-.915 5.316 1.333 6.835.836.565 1.8.838 2.747.83 1.574 0 3.132-.766 4.08-2.17 1.51-2.25.914-5.322-1.332-6.83-2.25-1.518-5.318-.925-6.83 1.334zM123.527 28.225c.628.278 1.266.394 1.91.394 1.93 0 3.743-1.147 4.532-3.025 1.04-2.51-.13-5.394-2.636-6.447-2.504-1.046-5.398.136-6.44 2.65-1.046 2.51.144 5.386 2.633 6.427zM110.13 24.122c.337.074.657.105.98.105 2.295 0 4.333-1.624 4.816-3.944.53-2.675-1.187-5.26-3.852-5.81-2.672-.528-5.255 1.2-5.798 3.858-.53 2.665 1.202 5.26 3.855 5.792zM175.88 66.593c.706 2.032 2.6 3.302 4.624 3.302.55 0 1.094-.08 1.625-.277 2.57-.89 3.934-3.692 3.032-6.265-.898-2.56-3.692-3.92-6.262-3.022-2.573.888-3.92 3.7-3.02 6.263zM170.095 53.646c.9 1.625 2.587 2.545 4.32 2.545.806 0 1.626-.197 2.365-.604 2.392-1.32 3.245-4.307 1.944-6.695-1.32-2.368-4.308-3.245-6.684-1.936-2.377 1.32-3.262 4.31-1.945 6.692zM166.098 43.7c1.075 0 2.15-.352 3.047-1.064 2.14-1.69 2.492-4.78.805-6.91-1.686-2.133-4.787-2.484-6.906-.794-2.138 1.678-2.492 4.788-.803 6.91.982 1.217 2.41 1.86 3.858 1.86zM152.54 31.514c.93.844 2.122 1.26 3.293 1.26 1.334 0 2.68-.554 3.644-1.62 1.833-2.023 1.654-5.132-.355-6.956-2.02-1.818-5.124-1.657-6.954.36-1.814 2.02-1.655 5.13.372 6.956zM141.262 22.923c.803.524 1.717.77 2.617.77 1.622 0 3.228-.8 4.16-2.28 1.463-2.292.786-5.328-1.51-6.797-2.295-1.455-5.332-.772-6.792 1.52-1.45 2.288-.79 5.332 1.524 6.787zM128.7 16.354c.627.255 1.27.385 1.91.385 1.927 0 3.746-1.127 4.532-3.005 1.06-2.508-.117-5.4-2.622-6.444-2.502-1.06-5.394.12-6.44 2.618-1.058 2.506.113 5.4 2.62 6.446zM115.236 11.982c.368.085.756.13 1.124.13 2.235 0 4.257-1.53 4.773-3.8.625-2.647-1.012-5.303-3.663-5.914-2.65-.62-5.3 1.02-5.913 3.678-.61 2.644 1.03 5.285 3.68 5.906z"/></g></svg>