<svg viewBox="0 0 48 47" xmlns="http://www.w3.org/2000/svg"><path d="M23.995844,0 C10.7456831,0 0,10.7438795 0,23.9980525 C0,34.600507 6.87552825,43.5942523 16.4116959,46.7674755 C17.612372,46.988452 18.049919,46.247444 18.049919,45.6110315 C18.049919,45.0409121 18.0292939,43.5323789 18.0175081,41.5303314 C11.3423381,42.9799375 9.93393764,38.3129129 9.93393764,38.3129129 C8.84227995,35.5403939 7.26887859,34.8023323 7.26887859,34.8023323 C5.08998288,33.3144235 7.43387948,33.3438871 7.43387948,33.3438871 C9.84259786,33.5133024 11.109569,35.8173512 11.109569,35.8173512 C13.2501609,39.4840886 16.7269654,38.4248744 18.0941157,37.8105596 C18.3121526,36.2607774 18.9323792,35.2030364 19.6174275,34.6034534 C14.2887826,33.9979777 8.68611839,31.9384763 8.68611839,22.7429058 C8.68611839,20.1235971 9.62161452,17.9801247 11.1567121,16.3036493 C10.9092108,15.6967004 10.0856795,13.2556462 11.3924277,9.95278347 C11.3924277,9.95278347 13.4063225,9.30753197 17.9909901,12.412989 C19.9047058,11.8796989 21.9583777,11.6145271 23.9987905,11.6042148 C26.0377301,11.6145271 28.0899287,11.8796989 30.0065908,12.412989 C34.588312,9.30753197 36.5992604,9.95278347 36.5992604,9.95278347 C37.908955,13.2556462 37.0854237,15.6967004 36.8393956,16.3036493 C38.3774396,17.9801247 39.3055697,20.1235971 39.3055697,22.7429058 C39.3055697,31.9620471 33.6940661,33.9906118 28.3492158,34.5843021 C29.2095776,35.3253101 29.9771264,36.789648 29.9771264,39.0274038 C29.9771264,42.2359832 29.9476619,44.8243551 29.9476619,45.6110315 C29.9476619,46.2533367 30.3807893,47.0002374 31.5976708,46.7660023 C41.1264724,43.5854132 47.9961077,34.5975607 47.9961077,23.9980525 C47.9961077,10.7438795 37.2504246,0 23.995844,0" fill="#FFFFFF"/></svg>