<svg xmlns="http://www.w3.org/2000/svg" width="180" height="180"><path d="M104.58 121.383c1.557-7.327 4.208-13.46 7.953-18.408 3.745-4.944 9.156-8.72 16.232-11.33 2.788-1.11 5.963-2.207 9.525-3.293 3.563-1.086 7.02-2.513 10.374-4.28 3.354-1.77 6.367-4.105 9.04-7.01 2.674-2.907 4.5-6.665 5.48-11.277.808-3.798.81-7.307.006-10.526-.805-3.22-2.15-6.06-4.04-8.515-1.887-2.458-4.215-4.512-6.983-6.164-2.768-1.65-5.78-2.823-9.035-3.515-3.392-.717-6.722-.894-9.99-.53s-6.38 1.16-9.33 2.377c-2.953 1.214-5.7 2.793-8.238 4.735-2.54 1.94-4.76 4.057-6.666 6.346L98.59 39.506c2.657-3.83 5.824-7.057 9.5-9.68 3.676-2.62 7.65-4.646 11.926-6.076 4.273-1.43 8.67-2.27 13.188-2.514 4.518-.25 9.015.102 13.49 1.06 5.02 1.067 9.806 2.9 14.358 5.497 4.552 2.598 8.38 5.928 11.487 9.99 3.105 4.065 5.292 8.783 6.56 14.156 1.268 5.373 1.196 11.383-.217 18.03-1.096 5.156-2.745 9.412-4.948 12.77-2.203 3.362-4.745 6.152-7.628 8.376-2.883 2.224-6.1 4.02-9.653 5.392-3.552 1.37-7.226 2.645-11.02 3.825-2.73.84-5.476 1.742-8.234 2.717-2.76.976-5.278 2.316-7.556 4.027-2.278 1.715-4.31 3.94-6.098 6.68-1.788 2.74-3.157 6.347-4.11 10.823l-15.056-3.2zm-8.72 43.02l5.018-23.604 15.057 3.2-5.017 23.602-15.057-3.2z" fill="#ffffff"/><path d="M76.552 164.255L39.108 111.21l-20.802 19.553v33.492H0V12.398h18.306v99.85l55.75-56.374h20.178l-43.27 44.932 45.35 63.45z" fill="#ffffff"/></svg>