<svg width="120" height="120" viewBox="0 0 120 120" xmlns="http://www.w3.org/2000/svg"><path d="M28.117 90.892c.346-6.043 2.932-12.61 6.948-17.647.99-1.242 3.58-3.857 4.753-4.8.458-.368.832-.715.832-.77 0-.205-2.756-1.476-4.372-2.016-2.798-.936-4.964-1.29-7.892-1.29-2.935 0-5.093.353-7.913 1.296-7.892 2.64-13.95 9.196-16.003 17.322-.295 1.166-.577 2.885-.734 4.47l-.083.834H.1v-.672c0-.833.315-3.29.57-4.447C1.893 77.655 4.663 72.688 8.687 68.8c4.353-4.208 9.51-6.76 15.607-7.723 1.932-.306 6.378-.306 8.31 0 4.114.65 7.835 2.047 11.26 4.227.304.193.342.187.842-.13.587-.37 1.964-1.018 3.32-1.562 7.145-2.865 15.027-3.093 22.207-.643 1.608.548 4.175 1.66 4.986 2.158.583.36.623.366.924.175 3.42-2.178 7.146-3.576 11.26-4.226 1.93-.306 6.377-.306 8.31 0 6.096.964 11.253 3.515 15.606 7.722 4.024 3.888 6.793 8.855 8.015 14.373.256 1.157.572 3.614.572 4.447v.672h-3.678l-.083-.833c-.157-1.587-.44-3.306-.734-4.472-2.052-8.126-8.11-14.683-16.003-17.322-.928-.31-2.09-.65-2.582-.755-3.382-.72-7.28-.72-10.662 0-1.49.32-4.147 1.266-5.607 2l-1.38.69.366.308c4.06 3.41 6.477 6.28 8.653 10.27 2.017 3.7 3.46 8.672 3.69 12.714l.078 1.346H87.756l-.082-.956c-.44-5.108-1.97-9.574-4.68-13.66-1.56-2.345-3.438-4.38-5.92-6.41-.408-.333-.99-.836-1.295-1.12-.625-.577-2.46-1.683-3.244-1.953-.284-.1-1.163-.43-1.954-.737-2.066-.802-4.03-1.374-5.85-1.7-1.392-.25-1.98-.287-4.792-.287-3.62 0-5.133.194-7.763.99-3.968 1.205-6.27 2.275-8.183 3.806-4.25 3.4-6.6 6.1-8.59 9.865-1.862 3.525-2.8 6.822-3.202 11.267l-.08.894H28.04l.077-1.346zM26.66 56.58c-2.885-.36-5.834-1.82-7.946-3.935-5.37-5.374-5.37-14.105 0-19.48 5.37-5.373 14.097-5.373 19.468 0 5.37 5.375 5.37 14.106 0 19.48-3.02 3.02-7.256 4.468-11.52 3.935zm4.5-3.804c2.796-.8 5.048-2.66 6.348-5.246.796-1.582 1.068-2.743 1.068-4.563 0-1.82-.272-2.98-1.068-4.563-1.31-2.607-3.55-4.445-6.41-5.265-.81-.232-1.285-.283-2.65-.283-1.893 0-2.975.238-4.5.99-2.61 1.29-4.637 3.8-5.374 6.653-.354 1.373-.353 3.566.002 4.934.992 3.817 3.94 6.638 7.853 7.514 1.185.265 3.493.18 4.73-.172zm27.486 3.872c-.17-.03-.724-.114-1.233-.19-1.323-.192-3.076-.78-4.483-1.5-3.657-1.87-6.46-5.182-7.692-9.093-.532-1.686-.698-2.798-.698-4.686 0-1.89.166-3.002.698-4.688 1.726-5.473 6.465-9.607 12.175-10.62 1.19-.21 3.988-.21 5.177 0 5.71 1.013 10.45 5.147 12.176 10.62.532 1.686.697 2.8.697 4.687 0 1.887-.165 3-.697 4.685-1.696 5.377-6.308 9.48-11.857 10.55-.988.19-3.67.337-4.264.233zm3.672-4.195c2.09-.43 3.864-1.357 5.446-2.846 1.69-1.59 2.73-3.313 3.3-5.46.43-1.63.452-3.996.05-5.612-1.273-5.14-5.82-8.7-11.112-8.7-2.96 0-5.597 1.025-7.716 2.996-1.715 1.597-2.853 3.506-3.398 5.705-.4 1.616-.38 3.98.053 5.612.57 2.15 1.608 3.868 3.306 5.467 1.555 1.463 3.332 2.396 5.414 2.843 1.112.24 3.49.237 4.658-.004zm27.45 4.127c-2.885-.36-5.834-1.82-7.946-3.935-5.37-5.374-5.37-14.105 0-19.48 5.37-5.373 14.097-5.373 19.468 0 5.37 5.375 5.37 14.106 0 19.48-3.02 3.02-7.256 4.468-11.52 3.935zm4.5-3.804c2.796-.8 5.048-2.66 6.348-5.246.796-1.582 1.068-2.743 1.068-4.563 0-1.82-.272-2.98-1.068-4.563-1.31-2.607-3.55-4.445-6.41-5.265-.81-.232-1.285-.283-2.65-.283-1.893 0-2.975.238-4.5.99-2.61 1.29-4.637 3.8-5.374 6.653-.354 1.373-.353 3.566.002 4.934.99 3.817 3.94 6.638 7.853 7.514 1.186.265 3.494.18 4.73-.172z" fill="#FFF" fill-rule="evenodd"/></svg>